<svg xmlns="http://www.w3.org/2000/svg" xmlns:xlink="http://www.w3.org/1999/xlink" id="Layer_1" width="512" height="512" x="0" y="0" enable-background="new 0 0 512 512" version="1.1" viewBox="0 0 512 512" xml:space="preserve"><path d="M451.716,99.715c13.746,13.746,25.276,39.336,27.775,60.285H320V0.508c20.949,2.499,46.538,14.03,60.284,27.776	L451.716,99.715z M288,192V0H72C50,0,32,18,32,40v432c0,22,18,40,40,40h368c22,0,40-18,40-40V192H288z M416,448H96v-32h320V448z M416,384H96v-32h320V384z M416,320H96v-32h320V320z"/></svg>