<svg xmlns="http://www.w3.org/2000/svg" xmlns:xlink="http://www.w3.org/1999/xlink" id="Layer_1" x="0" y="0" enable-background="new 0 0 200 250" version="1.1" viewBox="-40 25 200 250" xml:space="preserve"><g><g><g><g><linearGradient id="SVGID_1_" x1="-193.058" x2="-311.09" y1="-318.299" y2="-432.499" gradientTransform="matrix(0.6746 0 0 0.6746 348.6781 406.2362)" gradientUnits="userSpaceOnUse"><stop offset="0" style="stop-color:#bfd62f"/><stop offset="1" style="stop-color:#80b341"/></linearGradient><path fill="url(#SVGID_1_)" d="M107.3,85l1.1-0.8C108,84.3,107.7,84.6,107.3,85z"/><path fill="#333" d="M113.7,99.9c-2-1.2-3.9-3.2-5.2-5.3c-1.3-2.1-2.2-4.5-2.2-6.5c0-1.4,0.4-2.4,1-3.1l-92.8,69.1 c-1.3,0.5-2.2,1.9-2.2,3.9c0,2,0.8,4.4,2.2,6.5c1.3,2.1,3.2,4.1,5.2,5.3l78.4,46.9l93.9-70L113.7,99.9z"/></g><polygon fill="#020202" points="98.2 219.8 98.2 216.7 192.1 146.8 192.1 149.9"/><path fill="#020202" d="M19.3,151.6c-5.8-3.5-10.5-1.6-10.5,4.2l0,0c0,5.8,4.7,13.3,10.5,16.8l0,0l79,47.2l0,0v-3.1l0,0 l-78.4-46.9l0,0c-4.1-2.5-7.4-7.7-7.4-11.8l0,0c0-4.1,3.3-5.4,7.4-3l0,0L98.2,202l0,0v-3.1l0,0L19.3,151.6z"/><linearGradient id="SVGID_2_" x1="-434.373" x2="-533.462" y1="-438.76" y2="-521.592" gradientTransform="matrix(0.6746 0 0 0.6746 348.6781 406.2362)" gradientUnits="userSpaceOnUse"><stop offset="0" style="stop-color:#bfd62f"/><stop offset="1" style="stop-color:#80b341"/></linearGradient><path fill="url(#SVGID_2_)" d="M11.8,150.3c1.9-0.8,4.5-0.4,7.4,1.4l93.9-69.9c-2.9-1.7-5.5-2.1-7.4-1.4L11.8,150.3z"/><linearGradient id="SVGID_3_" x1="-372.274" x2="-602.171" y1="-403.012" y2="-569.436" gradientTransform="matrix(0.6746 0 0 0.6746 348.6781 406.2362)" gradientUnits="userSpaceOnUse"><stop offset="0" style="stop-color:#bfd62f"/><stop offset="1" style="stop-color:#80b341"/></linearGradient><polygon fill="url(#SVGID_3_)" points="98.2 198.9 19.3 151.6 113.2 81.7 192.1 128.9"/><linearGradient id="SVGID_4_" x1="-238.034" x2="-279.856" y1="-267.423" y2="-326.283" gradientTransform="matrix(0.6746 0 0 0.6746 348.6781 406.2362)" gradientUnits="userSpaceOnUse"><stop offset="0" style="stop-color:#bfd62f"/><stop offset="1" style="stop-color:#80b341"/></linearGradient><polygon fill="url(#SVGID_4_)" points="98.2 202 98.2 198.9 192.1 128.9 192.1 132"/></g><g><linearGradient id="SVGID_5_" x1="-550.31" x2="-354.477" y1="-141.457" y2="-432.497" gradientTransform="matrix(0.6475 0 0 0.6475 369.8683 375.2506)" gradientUnits="userSpaceOnUse"><stop offset="0" style="stop-color:#f5f5f5"/><stop offset="1" style="stop-color:#ccc"/></linearGradient><polygon fill="url(#SVGID_5_)" points="98.7 210.4 14.9 161.6 105 94.4 188.8 143.2"/><linearGradient id="SVGID_6_" x1="-477.235" x2="-610.363" y1="-408.404" y2="-536.888" gradientTransform="matrix(0.6475 0 0 0.6475 369.8683 375.2506)" gradientUnits="userSpaceOnUse"><stop offset="0" style="stop-color:#f5f5f5"/><stop offset="1" style="stop-color:#ccc"/></linearGradient><polygon fill="url(#SVGID_6_)" points="98.7 208.4 14.9 159.5 105 92.4 188.8 141.2"/><linearGradient id="SVGID_7_" x1="-550.309" x2="-354.472" y1="-146.642" y2="-437.689" gradientTransform="matrix(0.6475 0 0 0.6475 369.8683 374.6032)" gradientUnits="userSpaceOnUse"><stop offset="0" style="stop-color:#f5f5f5"/><stop offset="1" style="stop-color:#ccc"/></linearGradient><polygon fill="url(#SVGID_7_)" points="98.7 206.4 14.9 157.5 105 90.4 188.8 139.2"/><linearGradient id="SVGID_8_" x1="-477.236" x2="-610.366" y1="-413.595" y2="-542.081" gradientTransform="matrix(0.6475 0 0 0.6475 369.8683 374.6032)" gradientUnits="userSpaceOnUse"><stop offset="0" style="stop-color:#f5f5f5"/><stop offset="1" style="stop-color:#ccc"/></linearGradient><polygon fill="url(#SVGID_8_)" points="98.7 204.4 14.9 155.5 105 88.4 188.8 137.2"/><linearGradient id="SVGID_9_" x1="-550.301" x2="-354.465" y1="-151.845" y2="-442.89" gradientTransform="matrix(0.6475 0 0 0.6475 369.8683 373.9545)" gradientUnits="userSpaceOnUse"><stop offset="0" style="stop-color:#f5f5f5"/><stop offset="1" style="stop-color:#ccc"/></linearGradient><polygon fill="url(#SVGID_9_)" points="98.7 202.3 14.9 153.5 105 86.4 188.8 135.2"/><linearGradient id="SVGID_10_" x1="-477.243" x2="-610.388" y1="-418.794" y2="-547.294" gradientTransform="matrix(0.6475 0 0 0.6475 369.8683 373.9545)" gradientUnits="userSpaceOnUse"><stop offset="0" style="stop-color:#f5f5f5"/><stop offset="1" style="stop-color:#ccc"/></linearGradient><polygon fill="url(#SVGID_10_)" points="98.7 200.3 14.9 151.5 105 84.4 188.8 133.2"/></g><g><path fill="#333" d="M11.8,150.3c1.9-0.8,4.5-0.4,7.4,1.4l93.9-69.9c-2.9-1.7-5.5-2.1-7.4-1.4L11.8,150.3z"/><polygon fill="#333" points="98.2 198.9 19.3 151.6 113.2 81.7 192.1 128.9"/><polygon fill="#020202" points="98.2 202 98.2 198.9 192.1 128.9 192.1 132"/><g><path fill="#020202" d="M12.4,158c0-4.1,3.3-5.4,7.4-3L98.2,202v-3.1l-79-47.2c-5.8-3.5-10.5-1.6-10.5,4.2 c0,1.8,0.5,3.7,1.3,5.7l4.3,2.6C13.1,162.1,12.4,159.9,12.4,158z"/></g></g></g></g><g><g><g><g><linearGradient id="SVGID_11_" x1="-195.588" x2="-313.62" y1="-358.378" y2="-472.578" gradientTransform="matrix(0.6746 0 0 0.6746 348.6781 406.2362)" gradientUnits="userSpaceOnUse"><stop offset="0" style="stop-color:#bfd62f"/><stop offset="1" style="stop-color:#80b341"/></linearGradient><path fill="url(#SVGID_11_)" d="M105.6,57.9l1.1-0.8C106.3,57.3,106,57.6,105.6,57.9z"/><path fill="#333" d="M112,72.8c-2-1.2-3.9-3.2-5.2-5.3c-1.3-2.1-2.2-4.5-2.2-6.5c0-1.4,0.4-2.4,1-3.1l-92.8,69.1 c-1.3,0.5-2.2,1.9-2.2,3.9c0,2,0.8,4.4,2.2,6.5c1.3,2.1,3.2,4.1,5.2,5.3l78.4,46.9l93.9-70L112,72.8z"/></g><polygon fill="#020202" points="96.5 192.8 96.5 189.7 190.4 119.7 190.4 122.8"/><path fill="#020202" d="M17.6,124.6c-5.8-3.5-10.5-1.6-10.5,4.2l0,0c0,5.8,4.7,13.3,10.5,16.8l0,0l79,47.2l0,0v-3.1l0,0 l-78.4-46.9l0,0c-4.1-2.5-7.4-7.7-7.4-11.8l0,0c0-4.1,3.3-5.4,7.4-3l0,0l78.4,46.9l0,0v-3.1l0,0L17.6,124.6z"/><linearGradient id="SVGID_12_" x1="-436.903" x2="-535.992" y1="-478.838" y2="-561.671" gradientTransform="matrix(0.6746 0 0 0.6746 348.6781 406.2362)" gradientUnits="userSpaceOnUse"><stop offset="0" style="stop-color:#bfd62f"/><stop offset="1" style="stop-color:#80b341"/></linearGradient><path fill="url(#SVGID_12_)" d="M10.1,123.2c1.9-0.8,4.5-0.4,7.4,1.4l93.9-69.9c-2.9-1.7-5.5-2.1-7.4-1.4L10.1,123.2z"/><linearGradient id="SVGID_13_" x1="-374.804" x2="-604.701" y1="-443.091" y2="-609.515" gradientTransform="matrix(0.6746 0 0 0.6746 348.6781 406.2362)" gradientUnits="userSpaceOnUse"><stop offset="0" style="stop-color:#bfd62f"/><stop offset="1" style="stop-color:#80b341"/></linearGradient><polygon fill="url(#SVGID_13_)" points="96.5 171.8 17.6 124.6 111.5 54.7 190.4 101.9"/><linearGradient id="SVGID_14_" x1="-240.564" x2="-282.386" y1="-307.502" y2="-366.362" gradientTransform="matrix(0.6746 0 0 0.6746 348.6781 406.2362)" gradientUnits="userSpaceOnUse"><stop offset="0" style="stop-color:#bfd62f"/><stop offset="1" style="stop-color:#80b341"/></linearGradient><polygon fill="url(#SVGID_14_)" points="96.5 174.9 96.5 171.8 190.4 101.9 190.4 105"/></g><g><linearGradient id="SVGID_15_" x1="-552.945" x2="-357.113" y1="-183.213" y2="-474.253" gradientTransform="matrix(0.6475 0 0 0.6475 369.8683 375.2506)" gradientUnits="userSpaceOnUse"><stop offset="0" style="stop-color:#f5f5f5"/><stop offset="1" style="stop-color:#ccc"/></linearGradient><polygon fill="url(#SVGID_15_)" points="97 183.3 13.2 134.5 103.3 67.4 187.1 116.2"/><linearGradient id="SVGID_16_" x1="-479.87" x2="-612.999" y1="-450.161" y2="-578.645" gradientTransform="matrix(0.6475 0 0 0.6475 369.8683 375.2506)" gradientUnits="userSpaceOnUse"><stop offset="0" style="stop-color:#f5f5f5"/><stop offset="1" style="stop-color:#ccc"/></linearGradient><polygon fill="url(#SVGID_16_)" points="97 181.3 13.2 132.5 103.3 65.4 187.1 114.2"/><linearGradient id="SVGID_17_" x1="-552.944" x2="-357.107" y1="-188.399" y2="-479.445" gradientTransform="matrix(0.6475 0 0 0.6475 369.8683 374.6032)" gradientUnits="userSpaceOnUse"><stop offset="0" style="stop-color:#f5f5f5"/><stop offset="1" style="stop-color:#ccc"/></linearGradient><polygon fill="url(#SVGID_17_)" points="97 179.3 13.2 130.5 103.3 63.4 187.1 112.2"/><linearGradient id="SVGID_18_" x1="-479.871" x2="-613.001" y1="-455.351" y2="-583.837" gradientTransform="matrix(0.6475 0 0 0.6475 369.8683 374.6032)" gradientUnits="userSpaceOnUse"><stop offset="0" style="stop-color:#f5f5f5"/><stop offset="1" style="stop-color:#ccc"/></linearGradient><polygon fill="url(#SVGID_18_)" points="97 177.3 13.2 128.5 103.3 61.4 187.1 110.2"/><linearGradient id="SVGID_19_" x1="-552.937" x2="-357.101" y1="-193.601" y2="-484.646" gradientTransform="matrix(0.6475 0 0 0.6475 369.8683 373.9545)" gradientUnits="userSpaceOnUse"><stop offset="0" style="stop-color:#f5f5f5"/><stop offset="1" style="stop-color:#ccc"/></linearGradient><polygon fill="url(#SVGID_19_)" points="97 175.3 13.2 126.5 103.3 59.4 187.1 108.2"/><linearGradient id="SVGID_20_" x1="-479.879" x2="-613.023" y1="-460.551" y2="-589.051" gradientTransform="matrix(0.6475 0 0 0.6475 369.8683 373.9545)" gradientUnits="userSpaceOnUse"><stop offset="0" style="stop-color:#f5f5f5"/><stop offset="1" style="stop-color:#ccc"/></linearGradient><polygon fill="url(#SVGID_20_)" points="97 173.3 13.2 124.5 103.3 57.4 187.1 106.2"/></g><g><path fill="#333" d="M10.1,123.2c1.9-0.8,4.5-0.4,7.4,1.4l93.9-69.9c-2.9-1.7-5.5-2.1-7.4-1.4L10.1,123.2z"/><polygon fill="#333" points="96.5 171.8 17.6 124.6 111.5 54.7 190.4 101.9"/><polygon fill="#020202" points="96.5 174.9 96.5 171.8 190.4 101.9 190.4 105"/><g><path fill="#020202" d="M10.7,131c0-4.1,3.3-5.4,7.4-3l78.4,46.9v-3.1l-79-47.2c-5.8-3.5-10.5-1.6-10.5,4.2 c0,1.8,0.5,3.7,1.3,5.7l4.3,2.6C11.4,135,10.7,132.9,10.7,131z"/></g></g></g></g><g><g><g><g><linearGradient id="SVGID_21_" x1="-191.924" x2="-309.956" y1="-397.502" y2="-511.702" gradientTransform="matrix(0.6746 0 0 0.6746 348.6781 406.2362)" gradientUnits="userSpaceOnUse"><stop offset="0" style="stop-color:#bfd62f"/><stop offset="1" style="stop-color:#80b341"/></linearGradient><path fill="url(#SVGID_21_)" d="M108.1,31.5l1.1-0.8C108.8,30.9,108.4,31.2,108.1,31.5z"/><path fill="#333" d="M114.5,46.4c-2-1.2-3.9-3.2-5.2-5.3c-1.3-2.1-2.2-4.5-2.2-6.5c0-1.4,0.4-2.4,1-3.1l-92.8,69.1 c-1.3,0.5-2.2,1.9-2.2,3.9c0,2,0.8,4.4,2.2,6.5c1.3,2.1,3.2,4.1,5.2,5.3L99,163.3l93.9-70L114.5,46.4z"/></g><polygon fill="#020202" points="99 166.4 99 163.3 192.9 93.3 192.9 96.4"/><path fill="#020202" d="M20,98.2c-5.8-3.5-10.5-1.6-10.5,4.2l0,0c0,5.8,4.7,13.3,10.5,16.8l0,0l79,47.2l0,0v-3.1l0,0l-78.4-46.9 l0,0c-4.1-2.5-7.4-7.7-7.4-11.8l0,0c0-4.1,3.3-5.4,7.4-3l0,0L99,148.5l0,0v-3.1l0,0L20,98.2z"/><linearGradient id="SVGID_22_" x1="-433.239" x2="-532.328" y1="-517.963" y2="-600.795" gradientTransform="matrix(0.6746 0 0 0.6746 348.6781 406.2362)" gradientUnits="userSpaceOnUse"><stop offset="0" style="stop-color:#bfd62f"/><stop offset="1" style="stop-color:#80b341"/></linearGradient><path fill="url(#SVGID_22_)" d="M12.6,96.8c1.9-0.8,4.5-0.4,7.4,1.4l93.9-69.9c-2.9-1.7-5.5-2.1-7.4-1.4L12.6,96.8z"/><linearGradient id="SVGID_23_" x1="-371.14" x2="-601.037" y1="-482.216" y2="-648.639" gradientTransform="matrix(0.6746 0 0 0.6746 348.6781 406.2362)" gradientUnits="userSpaceOnUse"><stop offset="0" style="stop-color:#bfd62f"/><stop offset="1" style="stop-color:#80b341"/></linearGradient><polygon fill="url(#SVGID_23_)" points="99 145.4 20 98.2 113.9 28.3 192.9 75.5"/><linearGradient id="SVGID_24_" x1="-236.9" x2="-278.721" y1="-346.627" y2="-405.487" gradientTransform="matrix(0.6746 0 0 0.6746 348.6781 406.2362)" gradientUnits="userSpaceOnUse"><stop offset="0" style="stop-color:#bfd62f"/><stop offset="1" style="stop-color:#80b341"/></linearGradient><polygon fill="url(#SVGID_24_)" points="99 148.5 99 145.4 192.9 75.5 192.9 78.6"/></g><g><linearGradient id="SVGID_25_" x1="-549.128" x2="-353.295" y1="-223.975" y2="-515.015" gradientTransform="matrix(0.6475 0 0 0.6475 369.8683 375.2506)" gradientUnits="userSpaceOnUse"><stop offset="0" style="stop-color:#f5f5f5"/><stop offset="1" style="stop-color:#ccc"/></linearGradient><polygon fill="url(#SVGID_25_)" points="99.5 156.9 15.7 108.1 105.8 41 189.6 89.8"/><linearGradient id="SVGID_26_" x1="-476.053" x2="-609.181" y1="-490.923" y2="-619.407" gradientTransform="matrix(0.6475 0 0 0.6475 369.8683 375.2506)" gradientUnits="userSpaceOnUse"><stop offset="0" style="stop-color:#f5f5f5"/><stop offset="1" style="stop-color:#ccc"/></linearGradient><polygon fill="url(#SVGID_26_)" points="99.5 154.9 15.7 106.1 105.8 39 189.6 87.8"/><linearGradient id="SVGID_27_" x1="-549.127" x2="-353.29" y1="-229.161" y2="-520.207" gradientTransform="matrix(0.6475 0 0 0.6475 369.8683 374.6032)" gradientUnits="userSpaceOnUse"><stop offset="0" style="stop-color:#f5f5f5"/><stop offset="1" style="stop-color:#ccc"/></linearGradient><polygon fill="url(#SVGID_27_)" points="99.5 152.9 15.7 104.1 105.8 37 189.6 85.8"/><linearGradient id="SVGID_28_" x1="-476.054" x2="-609.184" y1="-496.113" y2="-624.599" gradientTransform="matrix(0.6475 0 0 0.6475 369.8683 374.6032)" gradientUnits="userSpaceOnUse"><stop offset="0" style="stop-color:#f5f5f5"/><stop offset="1" style="stop-color:#ccc"/></linearGradient><polygon fill="url(#SVGID_28_)" points="99.5 150.9 15.7 102.1 105.8 35 189.6 83.8"/><linearGradient id="SVGID_29_" x1="-549.119" x2="-353.284" y1="-234.363" y2="-525.408" gradientTransform="matrix(0.6475 0 0 0.6475 369.8683 373.9545)" gradientUnits="userSpaceOnUse"><stop offset="0" style="stop-color:#f5f5f5"/><stop offset="1" style="stop-color:#ccc"/></linearGradient><polygon fill="url(#SVGID_29_)" points="99.5 148.9 15.7 100.1 105.8 33 189.6 81.8"/><linearGradient id="SVGID_30_" x1="-476.061" x2="-609.206" y1="-501.313" y2="-629.812" gradientTransform="matrix(0.6475 0 0 0.6475 369.8683 373.9545)" gradientUnits="userSpaceOnUse"><stop offset="0" style="stop-color:#f5f5f5"/><stop offset="1" style="stop-color:#ccc"/></linearGradient><polygon fill="url(#SVGID_30_)" points="99.5 146.9 15.7 98.1 105.8 31 189.6 79.8"/></g><g><path fill="#333" d="M12.6,96.8c1.9-0.8,4.5-0.4,7.4,1.4l93.9-69.9c-2.9-1.7-5.5-2.1-7.4-1.4L12.6,96.8z"/><polygon fill="#333" points="99 145.4 20 98.2 113.9 28.3 192.9 75.5"/><polygon fill="#020202" points="99 148.5 99 145.4 192.9 75.5 192.9 78.6"/><g><path fill="#020202" d="M13.2,104.6c0-4.1,3.3-5.4,7.4-3L99,148.5v-3.1L20,98.2c-5.8-3.5-10.5-1.6-10.5,4.2 c0,1.8,0.5,3.7,1.3,5.7l4.3,2.6C13.9,108.6,13.2,106.5,13.2,104.6z"/></g></g></g></g></svg>